{
  "accessors": [
    {
      "bufferView": 3,
      "componentType": 5126,
      "count": 10174,
      "max": [
        4.108699321746826,
        12.675399780273438,
        14.911720275878906
      ],
      "min": [
        -4.108698844909668,
        -3.6334990909381304e-06,
        -18.01282501220703
      ],
      "type": "VEC3"
    },
    {
      "bufferView": 3,
      "byteOffset": 122088,
      "componentType": 5126,
      "count": 10174,
      "max": [
        1.0,
        0.999061107635498,
        1.0
      ],
      "min": [
        -1.0,
        -0.9978154301643372,
        -0.9997200965881348
      ],
      "type": "VEC3"
    },
    {
      "bufferView": 4,
      "componentType": 5126,
      "count": 10174,
      "max": [
        1.0,
        0.9999991655349731,
        1.0,
        1.0
      ],
      "min": [
        -1.0,
        -0.9999993443489075,
        -1.0,
        -1.0
      ],
      "type": "VEC4"
    },
    {
      "bufferView": 2,
      "componentType": 5126,
      "count": 10174,
      "max": [
        0.984375,
        0.9942319989204407
      ],
      "min": [
        0.0054512000642716885,
        0.0029296875
      ],
      "type": "VEC2"
    },
    {
      "bufferView": 1,
      "componentType": 5125,
      "count": 33102,
      "type": "SCALAR"
    },
    {
      "bufferView": 3,
      "byteOffset": 244176,
      "componentType": 5126,
      "count": 6,
      "max": [
        0.4663107097148895,
        11.47111988067627,
        13.25041389465332
      ],
      "min": [
        -0.46630868315696716,
        11.073471069335938,
        12.497847557067871
      ],
      "type": "VEC3"
    },
    {
      "bufferView": 3,
      "byteOffset": 244248,
      "componentType": 5126,
      "count": 6,
      "max": [
        3.5271423115545986e-08,
        0.8841615915298462,
        0.4671841561794281
      ],
      "min": [
        3.527119929458422e-08,
        0.884160041809082,
        0.46718117594718933
      ],
      "type": "VEC3"
    },
    {
      "bufferView": 2,
      "byteOffset": 81392,
      "componentType": 5126,
      "count": 6,
      "max": [
        1.0587323904037476,
        1.0482295751571655
      ],
      "min": [
        -0.05920565128326416,
        0.0272408127784729
      ],
      "type": "VEC2"
    },
    {
      "bufferView": 1,
      "byteOffset": 132408,
      "componentType": 5125,
      "count": 12,
      "type": "SCALAR"
    },
    {
      "bufferView": 5,
      "componentType": 5126,
      "count": 138,
      "max": [
        1.0000003576278687,
        1.0000004768371582,
        1.0000001192092896,
        0.0,
        0.9961947202682495,
        1.0000001192092896,
        1.000000238418579,
        0.0,
        1.0,
        1.000000238418579,
        1.0,
        0.0,
        14.409183502197266,
        14.535083770751953,
        13.95266342163086,
        1.0
      ],
      "min": [
        -0.003412202000617981,
        -1.0000003576278687,
        -1.0000004768371582,
        0.0,
        -0.9961947798728943,
        -0.9961952567100525,
        -1.0000004768371582,
        0.0,
        -0.9999997615814209,
        -1.000000238418579,
        -0.9964439272880554,
        0.0,
        -14.409191131591797,
        -11.71712589263916,
        -14.316610336303711,
        1.0
      ],
      "type": "MAT4"
    },
    {
      "bufferView": 0,
      "componentType": 5123,
      "count": 10174,
      "type": "VEC4"
    },
    {
      "bufferView": 4,
      "byteOffset": 162784,
      "componentType": 5126,
      "count": 10174,
      "max": [
        1.0,
        0.5,
        0.25,
        0.0
      ],
      "min": [
        0.5,
        0.0,
        0.0,
        0.0
      ],
      "type": "VEC4"
    },
    {
      "bufferView": 0,
      "byteOffset": 81392,
      "componentType": 5123,
      "count": 6,
      "type": "VEC4"
    },
    {
      "bufferView": 4,
      "byteOffset": 325568,
      "componentType": 5126,
      "count": 6,
      "max": [
        1.0,
        0.0,
        0.0,
        0.0
      ],
      "min": [
        1.0,
        0.0,
        0.0,
        0.0
      ],
      "type": "VEC4"
    }
  ],
  "asset": {
    "extras": {
      "author": "masoudnayab (https://sketchfab.com/masoudnayab)",
      "license": "CC-BY-4.0 (http://creativecommons.org/licenses/by/4.0/)",
      "source": "https://sketchfab.com/3d-models/fall-of-cyber-tron-gimlock-dino-mode-c1df4f515a5f4e75bde328f98633753a",
      "title": "Fall Of Cyber Tron: Gimlock Dino Mode"
    },
    "generator": "Sketchfab-15.59.0",
    "version": "2.0"
  },
  "bufferViews": [
    {
      "buffer": 0,
      "byteLength": 81440,
      "byteStride": 8,
      "name": "shortBufferViews",
      "target": 34962
    },
    {
      "buffer": 0,
      "byteLength": 132456,
      "byteOffset": 81440,
      "name": "floatBufferViews",
      "target": 34963
    },
    {
      "buffer": 0,
      "byteLength": 81440,
      "byteOffset": 213896,
      "byteStride": 8,
      "name": "floatBufferViews",
      "target": 34962
    },
    {
      "buffer": 0,
      "byteLength": 244320,
      "byteOffset": 295336,
      "byteStride": 12,
      "name": "floatBufferViews",
      "target": 34962
    },
    {
      "buffer": 0,
      "byteLength": 325664,
      "byteOffset": 539656,
      "byteStride": 16,
      "name": "floatBufferViews",
      "target": 34962
    },
    {
      "buffer": 0,
      "byteLength": 8832,
      "byteOffset": 865320,
      "name": "floatBufferViews"
    }
  ],
  "buffers": [
    {
      "byteLength": 874152,
      "uri": "scene.bin"
    }
  ],
  "extensionsUsed": [
    "KHR_materials_emissive_strength"
  ],
  "images": [
    {
      "uri": "textures/ALT_Grimlock_TEXSET_D_baseColor.png"
    },
    {
      "uri": "textures/ALT_Grimlock_TEXSET_D_emissive.png"
    },
    {
      "uri": "textures/ALT_Grimlock_TEXSET_D_normal.png"
    },
    {
      "uri": "textures/Logo_AUT_CLRv2_baseColor.png"
    },
    {
      "uri": "textures/Logo_AUT_CLRv2_emissive.png"
    }
  ],
  "materials": [
    {
      "doubleSided": true,
      "emissiveFactor": [
        1.0,
        1.0,
        1.0
      ],
      "emissiveTexture": {
        "index": 1
      },
      "extensions": {
        "KHR_materials_emissive_strength": {
          "emissiveStrength": 10.0
        }
      },
      "name": "ALT_Grimlock_TEXSET_D",
      "normalTexture": {
        "index": 2
      },
      "pbrMetallicRoughness": {
        "baseColorTexture": {
          "index": 0
        },
        "roughnessFactor": 0.25
      }
    },
    {
      "alphaMode": "BLEND",
      "doubleSided": true,
      "emissiveFactor": [
        1.0,
        1.0,
        1.0
      ],
      "emissiveTexture": {
        "index": 4
      },
      "name": "Logo_AUT_CLRv2",
      "pbrMetallicRoughness": {
        "baseColorTexture": {
          "index": 3
        },
        "roughnessFactor": 0.25
      }
    }
  ],
  "meshes": [
    {
      "name": "Object_0",
      "primitives": [
        {
          "attributes": {
            "JOINTS_0": 10,
            "NORMAL": 1,
            "POSITION": 0,
            "TANGENT": 2,
            "TEXCOORD_0": 3,
            "TEXCOORD_1": 3,
            "WEIGHTS_0": 11
          },
          "indices": 4,
          "material": 0,
          "mode": 4
        }
      ]
    },
    {
      "name": "Object_1",
      "primitives": [
        {
          "attributes": {
            "JOINTS_0": 12,
            "NORMAL": 6,
            "POSITION": 5,
            "TEXCOORD_0": 7,
            "TEXCOORD_1": 7,
            "WEIGHTS_0": 13
          },
          "indices": 8,
          "material": 1,
          "mode": 4
        }
      ]
    }
  ],
  "nodes": [
    {
      "children": [
        1
      ],
      "matrix": [
        1.0,
        0.0,
        0.0,
        0.0,
        0.0,
        2.220446049250313e-16,
        -1.0,
        0.0,
        0.0,
        1.0,
        2.220446049250313e-16,
        0.0,
        0.0,
        0.0,
        0.0,
        1.0
      ],
      "name": "Sketchfab_model"
    },
    {
      "children": [
        2
      ],
      "name": "root"
    },
    {
      "children": [
        3
      ],
      "matrix": [
        1.0,
        0.0,
        0.0,
        0.0,
        0.0,
        2.220446049250313e-16,
        1.0,
        0.0,
        0.0,
        -1.0,
        2.220446049250313e-16,
        0.0,
        0.0,
        0.0,
        0.0,
        1.0
      ],
      "name": "GLTF_SceneRootNode"
    },
    {
      "children": [
        4
      ],
      "matrix": [
        8.429369480200677e-08,
        0.0,
        0.9999999999999966,
        0.0,
        -0.0,
        1.0,
        0.0,
        0.0,
        -0.9999999999999966,
        -0.0,
        8.429369480200677e-08,
        0.0,
        0.0,
        0.0,
        0.0,
        1.0
      ],
      "name": "Grimlock_VH_ARM_138"
    },
    {
      "children": [
        5,
        7,
        8,
        6
      ],
      "name": "GLTF_created_0"
    },
    {
      "children": [
        9
      ],
      "name": "GLTF_created_0_rootJoint"
    },
    {
      "name": "FoC_Grimlock_VH.SMD_137"
    },
    {
      "mesh": 0,
      "name": "Object_7",
      "skin": 0
    },
    {
      "mesh": 1,
      "name": "Object_8",
      "skin": 0
    },
    {
      "children": [
        10
      ],
      "name": "C_Root_Reference_XR_136",
      "rotation": [
        -0.7071068286895752,
        0.0,
        0.0,
        0.7071067094802856
      ]
    },
    {
      "children": [
        11,
        25,
        39,
        65
      ],
      "name": "C_Spine00_Hips_XB_135",
      "rotation": [
        0.5,
        0.5000017881393433,
        0.5,
        0.49999821186065674
      ],
      "scale": [
        1.0,
        0.9999999403953552,
        1.0
      ],
      "translation": [
        5.0236524156210353e-23,
        -1.3877787807814457e-17,
        8.240974426269531
      ]
    },
    {
      "children": [
        12,
        13,
        14
      ],
      "name": "R_Leg01_Thigh_XB_13",
      "rotation": [
        0.6967015266418457,
        0.6967020630836487,
        -0.1208581030368805,
        0.12085817754268646
      ],
      "scale": [
        1.0000001192092896,
        0.9999997019767761,
        1.0000001192092896
      ],
      "translation": [
        -2.2615973949432373,
        0.2054395079612732,
        2.736642360687256
      ]
    },
    {
      "name": "R_ThighRobo2_XT_0",
      "rotation": [
        -3.128870957880281e-06,
        -2.980505087180063e-08,
        2.2338242909071548e-13,
        1.0
      ],
      "scale": [
        1.0000001192092896,
        1.0,
        1.0000001192092896
      ],
      "translation": [
        -3.943321704864502,
        0.058917947113513947,
        -0.7583798170089722
      ]
    },
    {
      "name": "R_ThighRobo01_XT_1",
      "rotation": [
        -1.595108415131108e-06,
        -2.9802190937289197e-08,
        9.146132242676686e-07,
        1.0
      ],
      "scale": [
        1.0000001192092896,
        1.0,
        1.0000001192092896
      ],
      "translation": [
        -1.048648755386239e-06,
        5.590675300481962e-07,
        5.392340085563774e-07
      ]
    },
    {
      "children": [
        15,
        16
      ],
      "name": "R_Leg02_Knee_XB_12",
      "rotation": [
        -2.22564358409727e-06,
        0.7028635740280151,
        -2.1991691028233618e-06,
        0.7113247513771057
      ],
      "translation": [
        -3.2014005184173584,
        9.795379810384475e-06,
        -1.055012944561895e-05
      ]
    },
    {
      "name": "R_LegRobo3_XT_2",
      "rotation": [
        -0.6959656476974487,
        -0.6959671378135681,
        0.12502282857894897,
        0.12502345442771912
      ],
      "scale": [
        0.9999999403953552,
        0.9999997615814209,
        1.0
      ],
      "translation": [
        -9.13223743737035e-07,
        9.237249543048165e-08,
        0.0005289257387630641
      ]
    },
    {
      "children": [
        17,
        18,
        22
      ],
      "name": "R_Leg03_Ankle_XB_11",
      "rotation": [
        0.7142531871795654,
        2.2047389413269725e-13,
        0.6998873949050903,
        3.5811341413984066e-13
      ],
      "scale": [
        0.9999999403953552,
        1.0,
        0.9999999403953552
      ],
      "translation": [
        -2.6933367252349854,
        -7.03551631886512e-06,
        -0.0027272100560367107
      ]
    },
    {
      "name": "R_LegRobo5_XT_3",
      "rotation": [
        -0.5053013563156128,
        -0.49464166164398193,
        -0.4946362376213074,
        0.5053069591522217
      ],
      "scale": [
        0.9999999403953552,
        0.9999998807907104,
        0.9999998807907104
      ],
      "translation": [
        -3.6034648418426514,
        -0.06433257460594177,
        -0.8326721787452698
      ]
    },
    {
      "children": [
        19,
        20
      ],
      "name": "R_LegRobo4_XT_7",
      "rotation": [
        0.5763967633247375,
        -0.5763957500457764,
        -0.4095948338508606,
        0.4095933437347412
      ],
      "scale": [
        1.0,
        0.9999999403953552,
        0.9999998807907104
      ],
      "translation": [
        0.491030752658844,
        -0.06432077288627625,
        -0.8645082116127014
      ]
    },
    {
      "name": "R_Toe03Robo01_XT_4",
      "rotation": [
        0.7028462290763855,
        0.7028506398200989,
        -0.07748580724000931,
        0.07748629152774811
      ],
      "scale": [
        1.000000238418579,
        0.9999999403953552,
        1.0000001192092896
      ],
      "translation": [
        2.3325926576944767e-06,
        -0.5998898148536682,
        2.6814045906066895
      ]
    },
    {
      "children": [
        21
      ],
      "name": "R_LegRobo1_XT_6",
      "rotation": [
        4.54084622144137e-16,
        8.603936407780566e-08,
        1.2222076684054173e-08,
        1.0
      ],
      "translation": [
        -1.3101925105729606e-05,
        0.034592825919389725,
        0.17431291937828064
      ]
    },
    {
      "name": "R_LegRobo2_XT_5",
      "rotation": [
        -0.030843952670693398,
        -0.7064352631568909,
        0.03084397315979004,
        0.7064323425292969
      ],
      "scale": [
        1.0000001192092896,
        1.000000238418579,
        1.0
      ],
      "translation": [
        -5.949023602624948e-07,
        -0.5289191007614136,
        0.10783614218235016
      ]
    },
    {
      "children": [
        23,
        24
      ],
      "name": "R_Leg04_Toes_XL2_10",
      "rotation": [
        8.966754476511657e-14,
        0.5789334177970886,
        -1.621275000102812e-13,
        0.8153747916221619
      ],
      "scale": [
        1.0,
        1.0,
        0.9999999403953552
      ],
      "translation": [
        -3.7140941619873047,
        -1.1497349987621419e-05,
        -0.0034803268499672413
      ]
    },
    {
      "name": "R_Toe02Robo01_XT_8",
      "rotation": [
        -0.9761049151420593,
        0.11485335230827332,
        -0.18320296704769135,
        0.02155795320868492
      ],
      "scale": [
        1.0000020265579224,
        1.0000001192092896,
        1.000000238418579
      ],
      "translation": [
        0.2507087290287018,
        0.9142329692840576,
        -0.2276396006345749
      ]
    },
    {
      "name": "R_Toe01Robo01_XT_9",
      "rotation": [
        0.18320266902446747,
        -0.02155802585184574,
        -0.976104736328125,
        0.11485546082258224
      ],
      "scale": [
        1.0000009536743164,
        0.9999999403953552,
        1.0000001192092896
      ],
      "translation": [
        0.2507137656211853,
        -0.9142394661903381,
        -0.2276333123445511
      ]
    },
    {
      "children": [
        26,
        27,
        28
      ],
      "name": "L_Leg01_Thigh_XB_27",
      "rotation": [
        -0.12085375189781189,
        -0.12086246907711029,
        -0.6967025399208069,
        0.6967009902000427
      ],
      "translation": [
        2.261610984802246,
        0.20544011890888214,
        2.736642360687256
      ]
    },
    {
      "name": "L_ThighRobo2_XT_14",
      "rotation": [
        -3.128871412627632e-06,
        -2.2356626772079835e-08,
        3.126388037344441e-13,
        1.0
      ],
      "scale": [
        1.0000001192092896,
        1.0,
        1.0000001192092896
      ],
      "translation": [
        3.943307399749756,
        -0.058909062296152115,
        0.7583804130554199
      ]
    },
    {
      "name": "L_ThighRobo01_XT_15",
      "rotation": [
        -4.165211976214778e-06,
        -7.450580596923828e-09,
        1.5612774859619094e-06,
        1.0
      ],
      "scale": [
        1.0000001192092896,
        1.0,
        1.0000001192092896
      ],
      "translation": [
        -8.035522114369087e-07,
        -1.5775299289089162e-07,
        -4.820431058760732e-07
      ]
    },
    {
      "children": [
        29,
        30
      ],
      "name": "L_Leg02_Knee_XB_26",
      "rotation": [
        -2.2256162992562167e-06,
        0.7028635144233704,
        -2.1991431822243612e-06,
        0.7113248109817505
      ],
      "scale": [
        0.9999999403953552,
        1.0,
        0.9999999403953552
      ],
      "translation": [
        3.200857162475586,
        2.4466594368277583e-06,
        2.969416755149723e-06
      ]
    },
    {
      "name": "L_LegRobo3_XT_16",
      "rotation": [
        -0.6959674954414368,
        -0.6959652900695801,
        0.1250232458114624,
        0.1250230371952057
      ],
      "scale": [
        1.0,
        0.9999997615814209,
        0.9999998807907104
      ],
      "translation": [
        4.881666768596915e-07,
        -8.234239956550482e-09,
        1.3690853847947437e-05
      ]
    },
    {
      "children": [
        31,
        32,
        36
      ],
      "name": "L_Leg03_Ankle_XB_25",
      "rotation": [
        0.7142531871795654,
        0.0,
        0.6998874545097351,
        2.2348069705913076e-06
      ],
      "scale": [
        1.0000001192092896,
        0.9999999403953552,
        1.0000001192092896
      ],
      "translation": [
        2.692894220352173,
        -1.8116543287760578e-05,
        0.002737646456807852
      ]
    },
    {
      "name": "L_LegRobo5_XT_17",
      "rotation": [
        -0.5053048133850098,
        -0.4946413040161133,
        -0.49463188648223877,
        0.5053081512451172
      ],
      "scale": [
        1.0000001192092896,
        1.0000001192092896,
        1.0
      ],
      "translation": [
        3.604008197784424,
        0.06433523446321487,
        0.8330989480018616
      ]
    },
    {
      "children": [
        33,
        34
      ],
      "name": "L_LegRobo4_XT_21",
      "rotation": [
        0.5763930678367615,
        -0.5763993263244629,
        -0.4095916152000427,
        0.40959686040878296
      ],
      "scale": [
        1.0,
        0.9999998211860657,
        0.9999999403953552
      ],
      "translation": [
        -0.4904879331588745,
        0.06432628631591797,
        0.8649365901947021
      ]
    },
    {
      "name": "L_Toe03Robo01_XT_18",
      "rotation": [
        0.702848494052887,
        0.702848494052887,
        -0.07748588919639587,
        0.07748588919639587
      ],
      "scale": [
        1.0000001192092896,
        1.0,
        1.0000001192092896
      ],
      "translation": [
        2.9441964670695597e-06,
        0.599418580532074,
        -2.680233955383301
      ]
    },
    {
      "children": [
        35
      ],
      "name": "L_LegRobo1_XT_20",
      "rotation": [
        3.9110648231144296e-07,
        2.3009707916799016e-08,
        -4.412587273350255e-08,
        1.0
      ],
      "translation": [
        4.651211838790914e-06,
        -0.03459111228585243,
        -0.174310103058815
      ]
    },
    {
      "name": "L_LegRobo2_XT_19",
      "rotation": [
        -0.03084438480436802,
        -0.7064340710639954,
        0.030844368040561676,
        0.7064334154129028
      ],
      "scale": [
        1.0,
        1.0000001192092896,
        1.0
      ],
      "translation": [
        -1.1717993402271532e-06,
        0.528917670249939,
        -0.10784214735031128
      ]
    },
    {
      "children": [
        37,
        38
      ],
      "name": "L_Leg04_Toes_XL2_24",
      "rotation": [
        -3.1793208880468923e-14,
        0.5789335370063782,
        3.226303095125657e-14,
        0.8153747320175171
      ],
      "scale": [
        1.0,
        0.9999999403953552,
        1.0
      ],
      "translation": [
        3.712865114212036,
        9.61924251896562e-06,
        0.003471510484814644
      ]
    },
    {
      "name": "L_Toe02Robo01_XT_22",
      "rotation": [
        -0.9761046767234802,
        0.11485377699136734,
        -0.18320375680923462,
        0.021556666120886803
      ],
      "scale": [
        0.9999996423721313,
        0.9999999403953552,
        0.9999998807907104
      ],
      "translation": [
        -0.2506375014781952,
        -0.9142379760742188,
        0.22757820785045624
      ]
    },
    {
      "name": "L_Toe01Robo01_XT_23",
      "rotation": [
        0.1832030862569809,
        -0.02156003750860691,
        -0.9761053919792175,
        0.11484803259372711
      ],
      "scale": [
        0.9999970197677612,
        1.0000001192092896,
        0.9999997615814209
      ],
      "translation": [
        -0.25062549114227295,
        0.9142494201660156,
        0.22757163643836975
      ]
    },
    {
      "children": [
        40,
        41,
        42,
        43
      ],
      "name": "C_Tail01Robo01_XT_53",
      "rotation": [
        -0.09229361265897751,
        0.7010579705238342,
        -0.0922936275601387,
        0.7010574340820313
      ],
      "scale": [
        1.0,
        0.9999998807907104,
        0.9999998807907104
      ],
      "translation": [
        4.771324256580556e-06,
        -0.11246459931135178,
        -0.3112933039665222
      ]
    },
    {
      "name": "R_TailRobo1_XT_28",
      "rotation": [
        2.2344320314005017e-06,
        0.7071068286895752,
        0.7071068286895752,
        2.09615723179013e-06
      ],
      "scale": [
        1.0000001192092896,
        1.0,
        1.0000001192092896
      ],
      "translation": [
        0.003159075975418091,
        0.1930808424949646,
        -1.3283403266228788e-09
      ]
    },
    {
      "name": "L_TailRobo1_XT_29",
      "rotation": [
        0.7071068286895752,
        -1.7852549945018836e-06,
        -8.173136620825971e-07,
        0.7071068286895752
      ],
      "scale": [
        1.0,
        0.9999999403953552,
        1.0
      ],
      "translation": [
        0.003159075975418091,
        0.1930808573961258,
        -9.282473001803737e-06
      ]
    },
    {
      "name": "C_TailRobo1_XT_30",
      "rotation": [
        0.7071068286895752,
        -1.7852549945018836e-06,
        -8.173136620825971e-07,
        0.7071068286895752
      ],
      "scale": [
        1.0,
        0.9999999403953552,
        1.0
      ],
      "translation": [
        0.003159075975418091,
        0.1930808573961258,
        -9.282473001803737e-06
      ]
    },
    {
      "children": [
        44,
        45,
        46,
        47
      ],
      "name": "C_Tail02Robo01_XT_52",
      "rotation": [
        -2.701658008419372e-09,
        4.061458014348318e-08,
        -6.277113698160974e-06,
        1.0
      ],
      "scale": [
        1.000000238418579,
        1.000000238418579,
        1.0
      ],
      "translation": [
        2.6435883045196533,
        -8.821482879284304e-06,
        -3.21956264315304e-07
      ]
    },
    {
      "name": "R_TailRobo2_XT_31",
      "rotation": [
        5.6731632867013104e-06,
        -0.7071065902709961,
        -0.7071070671081543,
        2.4980579382827273e-06
      ],
      "scale": [
        1.0,
        0.9999999403953552,
        1.0
      ],
      "translation": [
        -0.031562983989715576,
        0.19308120012283325,
        1.2810401628371437e-09
      ]
    },
    {
      "name": "L_TailRobo2_XT_32",
      "rotation": [
        0.7071070671081543,
        1.6136226577145862e-06,
        4.660988906834973e-06,
        0.7071064710617065
      ],
      "scale": [
        1.0000001192092896,
        0.9999999403953552,
        1.0000001192092896
      ],
      "translation": [
        -0.031572580337524414,
        0.1930813193321228,
        -9.659884199209046e-06
      ]
    },
    {
      "name": "C_TailRobo2_XT_33",
      "rotation": [
        0.7071070671081543,
        1.6136226577145862e-06,
        4.660988906834973e-06,
        0.7071064710617065
      ],
      "scale": [
        1.0000001192092896,
        0.9999999403953552,
        1.0000001192092896
      ],
      "translation": [
        -0.031572580337524414,
        0.1930813193321228,
        -9.659884199209046e-06
      ]
    },
    {
      "children": [
        48,
        49,
        50,
        51
      ],
      "name": "C_Tail03Robo01_XT_51",
      "rotation": [
        1.8722781571639535e-12,
        3.0375750742842045e-13,
        6.254762411117554e-06,
        1.0
      ],
      "scale": [
        1.0,
        1.0,
        0.9999999403953552
      ],
      "translation": [
        2.372739791870117,
        2.2053731299820356e-05,
        -9.63270849752007e-08
      ]
    },
    {
      "name": "R_TailRobo3_XT_34",
      "rotation": [
        6.495176876342157e-07,
        0.7071062922477722,
        0.7071073651313782,
        3.6916071621817537e-06
      ],
      "scale": [
        1.000000238418579,
        1.0,
        1.0000001192092896
      ],
      "translation": [
        8.702347258804366e-06,
        0.22486543655395508,
        1.5832952158234548e-06
      ]
    },
    {
      "name": "L_TailRobo3_XT_35",
      "rotation": [
        0.7071073651313782,
        -2.8223305434948998e-06,
        2.1976337905016408e-07,
        0.7071062922477722
      ],
      "scale": [
        1.0,
        0.9999999403953552,
        1.0
      ],
      "translation": [
        8.463984158879612e-06,
        0.22486543655395508,
        -1.1132566214655526e-05
      ]
    },
    {
      "name": "C_TailRobo3_XT_36",
      "rotation": [
        0.7071073651313782,
        -2.8223305434948998e-06,
        2.1976337905016408e-07,
        0.7071062922477722
      ],
      "scale": [
        1.0,
        0.9999999403953552,
        1.0
      ],
      "translation": [
        8.463984158879612e-06,
        0.22486543655395508,
        -1.1132566214655526e-05
      ]
    },
    {
      "children": [
        52,
        53,
        54,
        55
      ],
      "name": "C_Tail04Robo01_XT_50",
      "rotation": [
        4.298783822399149e-13,
        2.575717417130363e-13,
        -1.490117540470237e-08,
        1.0
      ],
      "scale": [
        1.0,
        1.0,
        0.9999999403953552
      ],
      "translation": [
        2.1327664852142334,
        -8.34462571219774e-06,
        -8.65961737872567e-08
      ]
    },
    {
      "name": "R_TailRobo4_XT_37",
      "rotation": [
        5.833376235386822e-07,
        0.7071065902709961,
        0.7071070671081543,
        3.694568249557051e-06
      ],
      "translation": [
        -0.02819681167602539,
        0.24255037307739258,
        2.4744902020756854e-06
      ]
    },
    {
      "name": "L_TailRobo4_XT_38",
      "rotation": [
        0.7071070671081543,
        -2.867437387976679e-06,
        2.437961370560515e-07,
        0.7071064710617065
      ],
      "scale": [
        1.0,
        0.9999999403953552,
        1.0
      ],
      "translation": [
        -0.028197288513183594,
        0.24255037307739258,
        -1.2155899639765266e-05
      ]
    },
    {
      "name": "C_TailRobo4_XT_39",
      "rotation": [
        0.7071070671081543,
        -2.867437387976679e-06,
        2.437961370560515e-07,
        0.7071064710617065
      ],
      "scale": [
        1.0,
        0.9999999403953552,
        1.0
      ],
      "translation": [
        -0.028197288513183594,
        0.24255037307739258,
        -1.2155899639765266e-05
      ]
    },
    {
      "children": [
        56,
        57,
        58,
        59
      ],
      "name": "C_Tail05Robo01_XT_49",
      "rotation": [
        -3.8369250810431355e-13,
        6.288301043072542e-13,
        -3.1441450119018555e-06,
        1.0
      ],
      "translation": [
        1.9047385454177856,
        -6.914112873346312e-06,
        -7.732501217105892e-08
      ]
    },
    {
      "name": "R_TailRobo5_XT_40",
      "rotation": [
        -1.6082992715382716e-06,
        0.7071065902709961,
        0.7071070671081543,
        1.5029324913484743e-06
      ],
      "scale": [
        1.0000001192092896,
        1.0,
        1.0000001192092896
      ],
      "translation": [
        -0.02955913543701172,
        0.24256634712219238,
        3.0175410756783094e-06
      ]
    },
    {
      "name": "L_TailRobo5_XT_41",
      "rotation": [
        0.7071073651313782,
        -6.494603326245851e-07,
        2.4617759208922507e-06,
        0.7071062922477722
      ],
      "scale": [
        1.0,
        0.9999999403953552,
        1.0
      ],
      "translation": [
        -0.029559850692749023,
        0.2425553798675537,
        -1.2927311217936222e-05
      ]
    },
    {
      "name": "C_TailRobo5_XT_42",
      "rotation": [
        0.7071073651313782,
        -6.494603326245851e-07,
        2.4617759208922507e-06,
        0.7071062922477722
      ],
      "scale": [
        1.0,
        0.9999999403953552,
        1.0
      ],
      "translation": [
        -0.029559850692749023,
        0.2425553798675537,
        -1.2927311217936222e-05
      ]
    },
    {
      "children": [
        60,
        61,
        62,
        63
      ],
      "name": "C_Tail06Robo01_XT_48",
      "rotation": [
        -1.0657346519496978e-14,
        1.9539915069007388e-14,
        -3.1404197216033936e-06,
        1.0
      ],
      "scale": [
        1.0000001192092896,
        1.0000001192092896,
        1.0
      ],
      "translation": [
        1.7145874500274658,
        5.00682472193148e-06,
        -2.0690163182734977e-06
      ]
    },
    {
      "name": "R_TailRobo6_XT_43",
      "rotation": [
        5.6145613598346245e-06,
        -0.7071065902709961,
        -0.7071070671081543,
        2.577733312136843e-06
      ],
      "scale": [
        1.0,
        0.9999999403953552,
        1.0
      ],
      "translation": [
        -0.010431766510009766,
        0.25687456130981445,
        2.977429176098667e-06
      ]
    },
    {
      "name": "L_TailRobo6_XT_44",
      "rotation": [
        0.7071070671081543,
        1.6136226577145862e-06,
        4.660988906834973e-06,
        0.7071064710617065
      ],
      "scale": [
        1.0000001192092896,
        0.9999999403953552,
        1.0000001192092896
      ],
      "translation": [
        -0.01041567325592041,
        0.25687551498413086,
        -9.13837084226543e-06
      ]
    },
    {
      "name": "C_TailRobo6_XT_45",
      "rotation": [
        0.7071070671081543,
        1.6136226577145862e-06,
        4.660988906834973e-06,
        0.7071064710617065
      ],
      "scale": [
        1.0000001192092896,
        0.9999999403953552,
        1.0000001192092896
      ],
      "translation": [
        -0.01041567325592041,
        0.25687551498413086,
        -9.13837084226543e-06
      ]
    },
    {
      "children": [
        64
      ],
      "name": "C_Tail07Robo01_XT_47",
      "rotation": [
        1.4566061030951705e-13,
        4.369839722278418e-13,
        3.125518560409546e-06,
        1.0
      ],
      "translation": [
        1.4274365901947021,
        1.5735671695438214e-05,
        -5.796005098090973e-08
      ]
    },
    {
      "name": "C_TailRobo7_XT_46",
      "rotation": [
        0.7071070671081543,
        -7.426314141412149e-07,
        2.5760191419976763e-06,
        0.7071064710617065
      ],
      "scale": [
        1.0,
        0.9999999403953552,
        1.0
      ],
      "translation": [
        0.145003080368042,
        0.25687646865844727,
        -9.284876796300523e-06
      ]
    },
    {
      "children": [
        66,
        67,
        68,
        69,
        74,
        75,
        76,
        77,
        82,
        143,
        144,
        145
      ],
      "name": "C_Spine01_Lumbar01_XB_134",
      "rotation": [
        -0.5325244069099426,
        -0.5325244665145874,
        -0.46520718932151794,
        0.46520721912384033
      ],
      "scale": [
        0.9999999403953552,
        1.0,
        1.0
      ],
      "translation": [
        -8.719723609829089e-09,
        0.02708601951599121,
        0.1997963935136795
      ]
    },
    {
      "name": "R_HipsRobo2_XT_54",
      "rotation": [
        5.932067852340225e-14,
        -0.15002793073654175,
        6.971158405307681e-14,
        0.9886818528175354
      ],
      "translation": [
        1.379710078239441,
        1.1224300578760449e-05,
        2.6096413135528564
      ]
    },
    {
      "name": "R_HipsRobo1_XT_55",
      "rotation": [
        8.306421820985718e-15,
        -0.07029393315315247,
        -6.895643723994066e-14,
        0.9975263476371765
      ],
      "translation": [
        4.006158351898193,
        1.5113507288333494e-05,
        3.0423378944396973
      ]
    },
    {
      "name": "R_BoosterRobo3_XT_56",
      "rotation": [
        0.5812564492225647,
        0.4350234568119049,
        0.5399541854858398,
        0.4258463978767395
      ],
      "scale": [
        1.0,
        1.0000001192092896,
        0.9999999403953552
      ],
      "translation": [
        3.8274075984954834,
        -1.3450517654418945,
        2.738032341003418
      ]
    },
    {
      "children": [
        70,
        71,
        72,
        73
      ],
      "name": "R_BoosterRobo2_XT_61",
      "rotation": [
        0.450611412525177,
        0.332540899515152,
        0.6529632806777954,
        0.5099067687988281
      ],
      "scale": [
        1.0,
        1.0000001192092896,
        1.0000001192092896
      ],
      "translation": [
        2.756031036376953,
        -1.226763367652893,
        2.4539272785186768
      ]
    },
    {
      "name": "R_BoosterRobo6_XT_57",
      "rotation": [
        0.7297484278678894,
        -0.08746672421693802,
        -0.0977405309677124,
        0.6710168719291687
      ],
      "translation": [
        0.14614589512348175,
        0.5807285904884338,
        0.06272132694721222
      ]
    },
    {
      "name": "R_BoosterRobo5_XT_58",
      "rotation": [
        0.7297487854957581,
        -0.08746662735939026,
        -0.09774064272642136,
        0.6710164546966553
      ],
      "scale": [
        1.0,
        1.0000001192092896,
        1.000000238418579
      ],
      "translation": [
        -0.02676144242286682,
        -0.05910450220108032,
        0.009275618009269238
      ]
    },
    {
      "name": "R_BoosterRobo4_XT_59",
      "rotation": [
        -0.0017090410692617297,
        0.012969345785677433,
        -0.13052132725715637,
        0.9913592338562012
      ],
      "scale": [
        0.9999999403953552,
        1.0,
        0.9999999403953552
      ],
      "translation": [
        -0.007084377575665712,
        -0.04920680448412895,
        -0.6606978178024292
      ]
    },
    {
      "name": "R_BoosterRobo1_XT_60",
      "rotation": [
        0.5213260650634766,
        -0.4777199327945709,
        -0.5213320851325989,
        0.477719247341156
      ],
      "scale": [
        1.0000001192092896,
        1.0,
        0.9999998211860657
      ],
      "translation": [
        -6.2175176935852505e-06,
        0.7486793398857117,
        -0.5341908931732178
      ]
    },
    {
      "name": "L_HipsRobo2_XT_62",
      "rotation": [
        5.705233784318239e-14,
        0.9886817336082458,
        -2.929106677801614e-14,
        0.15002796053886414
      ],
      "scale": [
        1.0000001192092896,
        1.0,
        1.0000001192092896
      ],
      "translation": [
        1.37971031665802,
        1.1224298759771045e-05,
        2.60964035987854
      ]
    },
    {
      "name": "L_HipsRobo1_XT_63",
      "rotation": [
        -1.2484449143812526e-05,
        0.9975263476371765,
        8.797520649750368e-07,
        0.07029354572296143
      ],
      "scale": [
        1.0,
        0.9999998807907104,
        1.0
      ],
      "translation": [
        4.006158351898193,
        1.5113510926312301e-05,
        3.0423378944396973
      ]
    },
    {
      "name": "L_BoosterRobo3_XT_64",
      "rotation": [
        -0.5399614572525024,
        -0.4258514940738678,
        0.5812523365020752,
        0.435014933347702
      ],
      "translation": [
        3.827406644821167,
        1.3450791835784912,
        2.738022804260254
      ]
    },
    {
      "children": [
        78,
        79,
        80,
        81
      ],
      "name": "L_BoosterRobo2_XT_69",
      "rotation": [
        -0.6529678106307983,
        -0.509906530380249,
        0.45060983300209045,
        0.3325345516204834
      ],
      "scale": [
        1.0,
        0.9999999403953552,
        1.0
      ],
      "translation": [
        2.756028413772583,
        1.2267869710922241,
        2.4539177417755127
      ]
    },
    {
      "name": "L_BoosterRobo6_XT_65",
      "rotation": [
        0.7297530770301819,
        -0.08746567368507385,
        -0.09774071723222733,
        0.6710119247436523
      ],
      "scale": [
        1.0,
        1.0,
        1.0000001192092896
      ],
      "translation": [
        -0.14614439010620117,
        -0.5807308554649353,
        -0.06272467970848083
      ]
    },
    {
      "name": "L_BoosterRobo5_XT_66",
      "rotation": [
        0.7297530770301819,
        -0.08746585249900818,
        -0.09774050861597061,
        0.6710119247436523
      ],
      "scale": [
        1.0000001192092896,
        1.0,
        1.0000001192092896
      ],
      "translation": [
        0.026761915534734726,
        0.059107013046741486,
        -0.009274536743760109
      ]
    },
    {
      "name": "L_BoosterRobo4_XT_67",
      "rotation": [
        -0.0017058838857337832,
        0.012969614937901497,
        -0.13051779568195343,
        0.9913596510887146
      ],
      "scale": [
        0.9999999403953552,
        1.0000001192092896,
        1.0000001192092896
      ],
      "translation": [
        0.007081546355038881,
        0.049186646938323975,
        0.6606981158256531
      ]
    },
    {
      "name": "L_BoosterRobo1_XT_68",
      "rotation": [
        0.5213292241096497,
        -0.4777170419692993,
        -0.5213353037834167,
        0.4777151942253113
      ],
      "scale": [
        0.9999999403953552,
        0.9999998807907104,
        0.9999997615814209
      ],
      "translation": [
        7.264323357958347e-06,
        -0.7486818432807922,
        0.5341877937316895
      ]
    },
    {
      "children": [
        83,
        96,
        97,
        98,
        99,
        100,
        101,
        102,
        115,
        140,
        141,
        142
      ],
      "name": "C_Spine02_Thoracic01_XB_130",
      "rotation": [
        6.217248937900877e-15,
        -3.4208746946262636e-15,
        7.388534228880417e-14,
        1.0
      ],
      "translation": [
        3.682603597640991,
        3.1143424621404847e-06,
        -2.026567017310299e-06
      ]
    },
    {
      "children": [
        84
      ],
      "name": "R_Arm01_Clav_XB_82",
      "rotation": [
        -0.6687833070755005,
        -0.0027320755179971457,
        -0.743452250957489,
        0.000454627355793491
      ],
      "scale": [
        0.9999998807907104,
        0.9999997615814209,
        0.9999998807907104
      ],
      "translation": [
        2.594411849975586,
        -1.6285194158554077,
        -0.878757894039154
      ]
    },
    {
      "children": [
        85,
        86
      ],
      "name": "R_Arm02_Shoulder_XB_81",
      "rotation": [
        -1.03319786060041e-09,
        -0.0005758493789471686,
        -1.5643314554836252e-06,
        0.9999998211860657
      ],
      "scale": [
        1.0,
        0.9999999403953552,
        1.0
      ],
      "translation": [
        -0.6736888289451599,
        -6.034955504219397e-07,
        -1.0651155207597185e-05
      ]
    },
    {
      "name": "R_ArmRobo2_XT_70",
      "rotation": [
        0.5558987855911255,
        -0.5562809705734253,
        -0.43481212854385376,
        0.43870997428894043
      ],
      "scale": [
        1.0,
        0.9999998807907104,
        0.9999998211860657
      ],
      "translation": [
        -0.018586721271276474,
        0.0002796165645122528,
        -0.01044921763241291
      ]
    },
    {
      "children": [
        87,
        88
      ],
      "name": "R_Arm03_Elbow_XB_80",
      "rotation": [
        -6.775549650228641e-07,
        0.49973684549331665,
        -3.9095644410735986e-07,
        0.8661772608757019
      ],
      "scale": [
        1.0,
        0.9999999403953552,
        1.0
      ],
      "translation": [
        -1.6998424530029297,
        -6.573275186383398e-06,
        -4.103639639652101e-06
      ]
    },
    {
      "name": "R_ArmRobo3_XT_71",
      "rotation": [
        0.6988014578819275,
        -0.7010746598243713,
        -0.09882059693336487,
        0.10200732946395874
      ],
      "scale": [
        1.0,
        0.9999998807907104,
        1.0000001192092896
      ],
      "translation": [
        0.0042765443213284016,
        0.0015901997685432434,
        -0.015751492232084274
      ]
    },
    {
      "children": [
        89,
        91,
        93,
        95
      ],
      "name": "R_Arm04_Hand_XB_79",
      "rotation": [
        -0.0011278406018391252,
        -0.7113728523254395,
        0.004284682683646679,
        0.7028008699417114
      ],
      "scale": [
        0.9999999403953552,
        0.9999997019767761,
        1.0
      ],
      "translation": [
        -1.6479474306106567,
        6.9552052082144655e-06,
        1.4680486856377684e-05
      ]
    },
    {
      "children": [
        90
      ],
      "name": "R_Finger03_Middle01_XL2_73",
      "rotation": [
        0.5453606843948364,
        -0.0018395595252513885,
        -0.8381986021995544,
        0.0012034126557409763
      ],
      "scale": [
        0.9999998807907104,
        0.9999999403953552,
        1.0
      ],
      "translation": [
        0.39270922541618347,
        0.3486022353172302,
        -0.00031904730712994933
      ]
    },
    {
      "name": "R_Finger03_Middle02_XL2_72",
      "rotation": [
        -2.861172941365925e-13,
        0.3606569766998291,
        -2.105506220761999e-11,
        0.9326985478401184
      ],
      "scale": [
        0.9999998807907104,
        1.0,
        1.0
      ],
      "translation": [
        -0.5686412453651428,
        -5.239620804786682e-06,
        -3.741628006537212e-06
      ]
    },
    {
      "children": [
        92
      ],
      "name": "R_Finger02_Index01_XL2_75",
      "rotation": [
        0.5453606247901917,
        -0.0018398251850157976,
        -0.8381986618041992,
        0.0012026523472741246
      ],
      "scale": [
        1.0,
        0.9999998211860657,
        1.000000238418579
      ],
      "translation": [
        0.39273500442504883,
        -0.34166213870048523,
        0.0027221362106502056
      ]
    },
    {
      "name": "R_Finger02_Index02_XL2_74",
      "rotation": [
        -3.646910897714406e-07,
        0.3606569170951843,
        -1.4089434330344375e-07,
        0.9326985478401184
      ],
      "translation": [
        -0.5686213374137878,
        -3.7495046854019165e-06,
        1.3864133507013321e-05
      ]
    },
    {
      "children": [
        94
      ],
      "name": "R_Finger01_Thumb01_XL2_77",
      "rotation": [
        -0.0018187284003943205,
        0.5609687566757202,
        -0.0012409365735948086,
        0.8278340101242065
      ],
      "scale": [
        0.9999999403953552,
        1.0000001192092896,
        1.0
      ],
      "translation": [
        -0.3994949758052826,
        -9.269407200918067e-06,
        0.0063523356802761555
      ]
    },
    {
      "name": "R_Finger01_Thumb02_XL2_76",
      "rotation": [
        -3.023666386714474e-11,
        0.35744842886924744,
        -1.9063275263908608e-11,
        0.933932900428772
      ],
      "scale": [
        1.0,
        1.0000001192092896,
        1.0
      ],
      "translation": [
        -0.536146342754364,
        -1.5888363122940063e-06,
        -1.348927617073059e-05
      ]
    },
    {
      "name": "R_ArmRobo1_XT_78",
      "rotation": [
        0.4969574511051178,
        0.5007709264755249,
        -0.5068303942680359,
        0.4953632354736328
      ],
      "scale": [
        0.9999998807907104,
        0.9999998211860657,
        0.9999998211860657
      ],
      "translation": [
        -0.008489392697811127,
        0.0017317574238404632,
        0.010931565426290035
      ]
    },
    {
      "name": "R_ChestRobo3_XT_83",
      "rotation": [
        0.11148911714553833,
        0.11149235814809799,
        0.69826340675354,
        0.6982606053352356
      ],
      "scale": [
        1.0,
        1.0,
        0.9999999403953552
      ],
      "translation": [
        2.69103741645813,
        1.0529537576076109e-05,
        2.141453504562378
      ]
    },
    {
      "name": "R_ChestRobo2_XT_84",
      "rotation": [
        0.0603795200586319,
        0.060382526367902756,
        0.7045255303382874,
        0.7045226097106934
      ],
      "scale": [
        1.0,
        1.0,
        1.0000001192092896
      ],
      "translation": [
        0.450541615486145,
        1.0531395673751831e-05,
        2.633328437805176
      ]
    },
    {
      "name": "R_ChestRobo1_XT_85",
      "rotation": [
        0.6273950934410095,
        0.7549064755439758,
        0.12209856510162354,
        0.14691376686096191
      ],
      "scale": [
        1.0,
        0.9999998807907104,
        0.9999999403953552
      ],
      "translation": [
        3.574719190597534,
        -0.6739450097084045,
        -2.0163650512695313
      ]
    },
    {
      "name": "L_ChestRobo3_XT_86",
      "rotation": [
        -0.6982606053352356,
        -0.69826340675354,
        0.11149236559867859,
        0.11148907244205475
      ],
      "scale": [
        1.0,
        1.0000001192092896,
        1.0
      ],
      "translation": [
        2.6910369396209717,
        1.0529541214054916e-05,
        2.1414382457733154
      ]
    },
    {
      "name": "L_ChestRobo2_XT_87",
      "rotation": [
        -0.7045226693153381,
        -0.7045254707336426,
        0.06038250774145126,
        0.06037954241037369
      ],
      "translation": [
        0.450527548789978,
        1.0531392945267726e-05,
        2.633328437805176
      ]
    },
    {
      "name": "L_ChestRobo1_XT_88",
      "rotation": [
        -0.12210318446159363,
        -0.1469138115644455,
        0.6273989677429199,
        0.7549024820327759
      ],
      "scale": [
        0.9999999403953552,
        1.0,
        0.9999999403953552
      ],
      "translation": [
        3.5747177600860596,
        0.673935055732727,
        -2.016355276107788
      ]
    },
    {
      "children": [
        103
      ],
      "name": "L_Arm01_Clav_XB_101",
      "rotation": [
        -0.7434523701667786,
        0.00045567305642180145,
        0.6687833070755005,
        0.002730913460254669
      ],
      "scale": [
        1.0000001192092896,
        1.0,
        0.9999999403953552
      ],
      "translation": [
        2.5944087505340576,
        1.6285170316696167,
        -0.8787553906440735
      ]
    },
    {
      "children": [
        104,
        105
      ],
      "name": "L_Arm02_Shoulder_XB_100",
      "rotation": [
        3.128734988422366e-06,
        -0.0005760794738307595,
        -1.8480834640399735e-09,
        0.9999998211860657
      ],
      "scale": [
        1.0,
        1.0000001192092896,
        1.0
      ],
      "translation": [
        0.6737050414085388,
        3.6489277590590063e-06,
        -4.095871645404259e-06
      ]
    },
    {
      "name": "L_ArmRobo2_XT_89",
      "rotation": [
        0.5558991432189941,
        -0.5562804341316223,
        -0.43481162190437317,
        0.4387107193470001
      ],
      "scale": [
        1.0,
        0.9999999403953552,
        1.0
      ],
      "translation": [
        0.018590262159705162,
        -0.00027949732611887157,
        0.010447075590491295
      ]
    },
    {
      "children": [
        106,
        107
      ],
      "name": "L_Arm03_Elbow_XB_99",
      "rotation": [
        -8.85852387000341e-07,
        0.4997369349002838,
        3.100956746493466e-06,
        0.8661772012710571
      ],
      "scale": [
        1.0,
        1.0,
        0.9999999403953552
      ],
      "translation": [
        1.6998422145843506,
        8.68737515702378e-06,
        5.830311238241848e-06
      ]
    },
    {
      "name": "L_ArmRobo3_XT_90",
      "rotation": [
        0.6987974643707275,
        -0.7010785341262817,
        -0.0988212451338768,
        0.102006696164608
      ],
      "scale": [
        0.9999999403953552,
        0.9999998807907104,
        0.9999998807907104
      ],
      "translation": [
        -0.004288183059543371,
        -0.001590503379702568,
        0.01575157605111599
      ]
    },
    {
      "children": [
        108,
        110,
        112,
        114
      ],
      "name": "L_Arm04_Hand_XB_98",
      "rotation": [
        -0.0011327890679240227,
        -0.7113729119300842,
        0.004289690405130386,
        0.7028008103370667
      ],
      "scale": [
        1.0000001192092896,
        1.0000003576278687,
        1.0000001192092896
      ],
      "translation": [
        1.6479202508926392,
        -1.9518573026289232e-05,
        -3.213959189451998e-06
      ]
    },
    {
      "children": [
        109
      ],
      "name": "L_Finger03_Middle01_XL2_92",
      "rotation": [
        0.545360803604126,
        -0.0018486457411199808,
        -0.8381985425949097,
        0.0011962606804445386
      ],
      "scale": [
        1.0,
        1.0000001192092896,
        0.9999999403953552
      ],
      "translation": [
        -0.39273616671562195,
        -0.34859606623649597,
        0.00028732744976878166
      ]
    },
    {
      "name": "L_Finger03_Middle02_XL2_91",
      "rotation": [
        5.470371888804948e-07,
        0.3606571853160858,
        2.1155044294118852e-07,
        0.9326984882354736
      ],
      "scale": [
        0.9999998211860657,
        0.9999999403953552,
        0.9999999403953552
      ],
      "translation": [
        0.5686264038085938,
        -1.562760076012637e-06,
        1.02967896964401e-06
      ]
    },
    {
      "children": [
        111
      ],
      "name": "L_Finger02_Index01_XL2_94",
      "rotation": [
        0.5453606843948364,
        -0.001849335734732449,
        -0.8381986021995544,
        0.0011948421597480774
      ],
      "scale": [
        0.9999999403953552,
        1.0000001192092896,
        1.0
      ],
      "translation": [
        -0.39273086190223694,
        0.34166842699050903,
        -0.002739835763350129
      ]
    },
    {
      "name": "L_Finger02_Index02_XL2_93",
      "rotation": [
        -1.4762139244339778e-06,
        0.3606571853160858,
        1.1064280442951713e-06,
        0.9326984882354736
      ],
      "scale": [
        0.9999999403953552,
        0.9999999403953552,
        0.9999999403953552
      ],
      "translation": [
        0.56862872838974,
        -2.508983016014099e-06,
        -7.4035488069057465e-06
      ]
    },
    {
      "children": [
        113
      ],
      "name": "L_Finger01_Thumb01_XL2_96",
      "rotation": [
        -0.0018190064001828432,
        0.5609687566757202,
        -0.0012401797575876117,
        0.8278340101242065
      ],
      "scale": [
        1.0,
        1.0000001192092896,
        0.9999999403953552
      ],
      "translation": [
        0.39948755502700806,
        2.6654463454178767e-06,
        -0.006349550094455481
      ]
    },
    {
      "name": "L_Finger01_Thumb02_XL2_95",
      "rotation": [
        -7.30652345737326e-07,
        0.3574485778808594,
        -2.795576108383102e-07,
        0.9339328408241272
      ],
      "scale": [
        1.0000001192092896,
        1.0000001192092896,
        0.9999999403953552
      ],
      "translation": [
        0.5361379384994507,
        1.6009435057640076e-06,
        -4.998872213946015e-07
      ]
    },
    {
      "name": "L_ArmRobo1_XT_97",
      "rotation": [
        0.4969651699066162,
        0.5007674694061279,
        -0.5068337917327881,
        0.49535542726516724
      ],
      "scale": [
        0.9999998211860657,
        0.9999999403953552,
        1.0
      ],
      "translation": [
        0.008488694205880165,
        -0.0017322298372164369,
        -0.01094755344092846
      ]
    },
    {
      "children": [
        116,
        130,
        131,
        132,
        133,
        134,
        135,
        136,
        137,
        138,
        139
      ],
      "name": "C_Spine03_Neck01_XB_126",
      "rotation": [
        6.217248937900877e-15,
        -3.4208746946262636e-15,
        7.388534228880417e-14,
        1.0
      ],
      "translation": [
        4.086938858032227,
        3.4589302231324837e-06,
        -4.76855120723485e-07
      ]
    },
    {
      "children": [
        117,
        118,
        119,
        124,
        125,
        126,
        127,
        128,
        129
      ],
      "name": "C_Spine04_Head_XB_115",
      "rotation": [
        6.217248937900877e-15,
        -3.4208746946262636e-15,
        7.388534228880417e-14,
        1.0
      ],
      "translation": [
        2.476795196533203,
        2.0954762476321775e-06,
        -1.6689534731995082e-06
      ]
    },
    {
      "name": "R_HeadRobo1_XT_102",
      "rotation": [
        -0.09743198752403259,
        -0.9327896237373352,
        -0.2081398069858551,
        0.27764785289764404
      ],
      "scale": [
        0.9999999403953552,
        0.9999999403953552,
        1.0
      ],
      "translation": [
        1.7381463050842285,
        -0.7626963257789612,
        1.4084340333938599
      ]
    },
    {
      "name": "L_HeadRobo1_XT_103",
      "rotation": [
        -0.20813710987567902,
        0.2776486277580261,
        0.09743029624223709,
        0.9327901601791382
      ],
      "scale": [
        0.9999999403953552,
        1.0000001192092896,
        0.9999999403953552
      ],
      "translation": [
        1.7381312847137451,
        0.762717068195343,
        1.4084218740463257
      ]
    },
    {
      "children": [
        120,
        121,
        122,
        123
      ],
      "name": "C_Jaw01Robo01_XT_108",
      "rotation": [
        3.474446543805243e-07,
        0.3456374406814575,
        -3.2063769594969926e-06,
        0.9383681416511536
      ],
      "translation": [
        1.330581545829773,
        -1.7509788108327484e-07,
        -0.33762264251708984
      ]
    },
    {
      "name": "R_JawRobo2_XT_104",
      "rotation": [
        0.678471565246582,
        0.6784754395484924,
        0.19918160140514374,
        0.19918374717235565
      ],
      "scale": [
        1.0,
        1.0,
        1.0000001192092896
      ],
      "translation": [
        1.2262325981282629e-05,
        -1.1751543283462524,
        -4.469277337193489e-05
      ]
    },
    {
      "name": "R_JawRobo1_XT_105",
      "rotation": [
        -6.97794280040201e-14,
        0.8196223378181458,
        -1.554612151901183e-13,
        0.5729042887687683
      ],
      "scale": [
        1.0000001192092896,
        1.0,
        1.0
      ],
      "translation": [
        2.6343743801116943,
        -2.5518147594993934e-07,
        -1.6670660972595215
      ]
    },
    {
      "name": "L_JawRobo2_XT_106",
      "rotation": [
        -0.19918370246887207,
        -0.19918161630630493,
        0.6784754991531372,
        0.6784715056419373
      ],
      "scale": [
        1.0,
        0.9999999403953552,
        1.0000001192092896
      ],
      "translation": [
        -3.6795390769839287e-06,
        1.1751543283462524,
        -4.6860055590514094e-05
      ]
    },
    {
      "name": "L_JawRobo1_XT_107",
      "rotation": [
        5.375015279325719e-14,
        -0.5729044675827026,
        -1.9826542209215592e-13,
        0.8196222186088562
      ],
      "translation": [
        2.6343886852264404,
        -2.551801117078867e-07,
        -1.6670650243759155
      ]
    },
    {
      "name": "C_HeadRobo6_XT_109",
      "rotation": [
        0.04759788140654564,
        0.04760085418820381,
        0.7055044174194336,
        0.70550137758255
      ],
      "scale": [
        1.0,
        1.0,
        0.9999999403953552
      ],
      "translation": [
        -0.23250913619995117,
        3.017639187419263e-07,
        0.12901842594146729
      ]
    },
    {
      "name": "C_HeadRobo5_XT_110",
      "rotation": [
        0.04759835824370384,
        0.047601304948329926,
        0.705504298210144,
        0.70550137758255
      ],
      "scale": [
        0.9999998807907104,
        0.9999998807907104,
        0.9999999403953552
      ],
      "translation": [
        0.2024233341217041,
        3.3229559903702466e-06,
        0.8175411224365234
      ]
    },
    {
      "name": "C_HeadRobo4_XT_111",
      "rotation": [
        0.04759733006358147,
        0.047600291669368744,
        0.7055043578147888,
        0.7055014967918396
      ],
      "scale": [
        0.9999998807907104,
        0.9999998807907104,
        1.0000001192092896
      ],
      "translation": [
        0.42467260360717773,
        9.026381121657323e-06,
        1.6853985786437988
      ]
    },
    {
      "name": "C_HeadRobo3_XT_112",
      "rotation": [
        0.04759718477725983,
        0.0476001612842083,
        0.7055044770240784,
        0.70550137758255
      ],
      "scale": [
        1.0000001192092896,
        1.0000001192092896,
        1.0
      ],
      "translation": [
        2.2136199474334717,
        9.527406291454099e-06,
        1.6096028089523315
      ]
    },
    {
      "name": "C_HeadRobo2_XT_113",
      "rotation": [
        0.04759718477725983,
        0.0476001612842083,
        0.7055044770240784,
        0.70550137758255
      ],
      "scale": [
        1.0000001192092896,
        1.0000001192092896,
        1.0
      ],
      "translation": [
        2.2136199474334717,
        9.527406291454099e-06,
        1.6096028089523315
      ]
    },
    {
      "name": "C_HeadRobo1_XT_114",
      "rotation": [
        0.04759828373789787,
        0.047601234167814255,
        0.705504298210144,
        0.70550137758255
      ],
      "translation": [
        4.151590347290039,
        1.5646115798517712e-06,
        -0.5051878690719604
      ]
    },
    {
      "name": "C_NeckRobo9_XT_116",
      "rotation": [
        0.04759718477725983,
        0.0476001612842083,
        0.7055044770240784,
        0.70550137758255
      ],
      "scale": [
        1.0000001192092896,
        1.0000001192092896,
        1.0
      ],
      "translation": [
        0.7642780542373657,
        8.415432603214867e-06,
        1.4391942024230957
      ]
    },
    {
      "name": "C_NeckRobo8_XT_117",
      "rotation": [
        0.04759718477725983,
        0.0476001612842083,
        0.7055044770240784,
        0.70550137758255
      ],
      "scale": [
        1.0000001192092896,
        1.0000001192092896,
        1.0
      ],
      "translation": [
        1.2308717966079712,
        8.2794558693422e-06,
        1.3552026748657227
      ]
    },
    {
      "name": "C_NeckRobo7_XT_118",
      "rotation": [
        0.04759718477725983,
        0.0476001612842083,
        0.7055044770240784,
        0.70550137758255
      ],
      "scale": [
        1.0000001192092896,
        1.0000001192092896,
        1.0
      ],
      "translation": [
        1.7190288305282593,
        8.089460607152432e-06,
        1.2673423290252686
      ]
    },
    {
      "name": "C_NeckRobo6_XT_119",
      "rotation": [
        0.047596003860235214,
        0.04759896546602249,
        0.7055045366287231,
        0.7055014967918396
      ],
      "scale": [
        1.0,
        1.0000001192092896,
        0.9999999403953552
      ],
      "translation": [
        -0.2810792922973633,
        6.148598913569003e-06,
        1.077803373336792
      ]
    },
    {
      "name": "C_NeckRobo5_XT_120",
      "rotation": [
        0.047598179429769516,
        0.04760114476084709,
        0.705504298210144,
        0.7055014371871948
      ],
      "scale": [
        1.0,
        0.9999998807907104,
        0.9999999403953552
      ],
      "translation": [
        -0.295562744140625,
        -4.4852577048004605e-06,
        -1.0988906621932983
      ]
    },
    {
      "name": "C_NeckRobo4_XT_121",
      "rotation": [
        0.047598179429769516,
        0.04760114476084709,
        0.705504298210144,
        0.7055014371871948
      ],
      "scale": [
        1.0,
        0.9999998807907104,
        0.9999999403953552
      ],
      "translation": [
        -0.295562744140625,
        -4.4852577048004605e-06,
        -1.0988906621932983
      ]
    },
    {
      "name": "C_NeckRobo3_XT_122",
      "rotation": [
        0.04759718105196953,
        0.047600165009498596,
        0.7055044174194336,
        0.7055014371871948
      ],
      "scale": [
        1.0000001192092896,
        1.0000001192092896,
        1.0
      ],
      "translation": [
        2.1768298149108887,
        4.45918203695328e-06,
        0.6795082092285156
      ]
    },
    {
      "name": "C_NeckRobo2_XT_123",
      "rotation": [
        0.04759718477725983,
        0.0476001612842083,
        0.7055044770240784,
        0.70550137758255
      ],
      "scale": [
        1.0000001192092896,
        1.0000001192092896,
        1.0
      ],
      "translation": [
        2.2175912857055664,
        8.029868695302866e-06,
        1.1775975227355957
      ]
    },
    {
      "name": "C_NeckRobo1_XT_124",
      "rotation": [
        0.07824970036745071,
        0.7027637362480164,
        -0.7027636170387268,
        0.07825267314910889
      ],
      "scale": [
        0.9999999403953552,
        1.0,
        0.9999998807907104
      ],
      "translation": [
        -0.0006504962802864611,
        4.611906661011744e-06,
        0.003210044465959072
      ]
    },
    {
      "name": "C_NeckRobo10_XT_125",
      "rotation": [
        0.04759733006358147,
        0.047600291669368744,
        0.7055043578147888,
        0.7055014967918396
      ],
      "scale": [
        0.9999998807907104,
        0.9999998807907104,
        1.0000001192092896
      ],
      "translation": [
        0.3439089059829712,
        8.532782885595225e-06,
        1.5148471593856812
      ]
    },
    {
      "name": "C_ChestRobo3_XT_127",
      "rotation": [
        0.22221584618091583,
        -2.7811217933049193e-06,
        -0.9749975204467773,
        2.915054265681394e-13
      ],
      "scale": [
        1.0,
        1.0,
        0.9999999403953552
      ],
      "translation": [
        3.5451717376708984,
        -4.727396571979625e-06,
        -2.005323648452759
      ]
    },
    {
      "name": "C_ChestRobo2_XT_128",
      "rotation": [
        0.031127292662858963,
        -3.895709426160465e-07,
        -0.9995154738426208,
        3.895708289292088e-07
      ],
      "translation": [
        1.6943124532699585,
        -8.877368600224145e-06,
        -2.675792694091797
      ]
    },
    {
      "name": "C_ChestRobo1_XT_129",
      "rotation": [
        -0.9444467425346375,
        1.1820130566775333e-05,
        0.3286643922328949,
        4.814960279445057e-13
      ],
      "translation": [
        3.5741474628448486,
        7.81938069849275e-06,
        1.243615984916687
      ]
    },
    {
      "name": "C_HipsRobo3_XT_131",
      "rotation": [
        0.04759877920150757,
        0.047601744532585144,
        0.705504298210144,
        0.7055013179779053
      ],
      "scale": [
        1.0,
        1.0,
        0.9999999403953552
      ],
      "translation": [
        3.408640146255493,
        -8.612866622570436e-06,
        -2.983445882797241
      ]
    },
    {
      "name": "C_HipsRobo2_XT_132",
      "rotation": [
        0.047596294432878494,
        0.04759926348924637,
        0.7055044770240784,
        0.7055014967918396
      ],
      "translation": [
        -0.28600290417671204,
        5.703415808966383e-06,
        1.5429073572158813
      ]
    },
    {
      "name": "C_HipsRobo1_XT_133",
      "rotation": [
        0.04759769141674042,
        0.0476006381213665,
        0.7055044174194336,
        0.70550137758255
      ],
      "translation": [
        1.8913509845733643,
        1.3131646028341493e-06,
        -0.07499578595161438
      ]
    }
  ],
  "samplers": [
    {
      "magFilter": 9729,
      "minFilter": 9987,
      "wrapS": 10497,
      "wrapT": 10497
    }
  ],
  "scene": 0,
  "scenes": [
    {
      "name": "Sketchfab_Scene",
      "nodes": [
        0
      ]
    }
  ],
  "skins": [
    {
      "inverseBindMatrices": 9,
      "joints": [
        5,
        9,
        10,
        11,
        12,
        13,
        14,
        15,
        16,
        17,
        18,
        19,
        20,
        21,
        22,
        23,
        24,
        25,
        26,
        27,
        28,
        29,
        30,
        31,
        32,
        33,
        34,
        35,
        36,
        37,
        38,
        39,
        40,
        41,
        42,
        43,
        44,
        45,
        46,
        47,
        48,
        49,
        50,
        51,
        52,
        53,
        54,
        55,
        56,
        57,
        58,
        59,
        60,
        61,
        62,
        63,
        64,
        65,
        66,
        67,
        68,
        69,
        70,
        71,
        72,
        73,
        74,
        75,
        76,
        77,
        78,
        79,
        80,
        81,
        82,
        83,
        84,
        85,
        86,
        87,
        88,
        89,
        90,
        91,
        92,
        93,
        94,
        95,
        96,
        97,
        98,
        99,
        100,
        101,
        102,
        103,
        104,
        105,
        106,
        107,
        108,
        109,
        110,
        111,
        112,
        113,
        114,
        115,
        116,
        117,
        118,
        119,
        120,
        121,
        122,
        123,
        124,
        125,
        126,
        127,
        128,
        129,
        130,
        131,
        132,
        133,
        134,
        135,
        136,
        137,
        138,
        139,
        140,
        141,
        142,
        143,
        144,
        145
      ],
      "skeleton": 5
    }
  ],
  "textures": [
    {
      "sampler": 0,
      "source": 0
    },
    {
      "sampler": 0,
      "source": 1
    },
    {
      "sampler": 0,
      "source": 2
    },
    {
      "sampler": 0,
      "source": 3
    },
    {
      "sampler": 0,
      "source": 4
    }
  ]
}
