{
  "accessors": [
    {
      "bufferView": 2,
      "componentType": 5126,
      "count": 3643,
      "max": [
        0.2944999933242798,
        0.9555000066757202,
        1.611800193786621
      ],
      "min": [
        -0.2937000095844269,
        -2.764000177383423,
        -0.23620004951953888
      ],
      "type": "VEC3"
    },
    {
      "bufferView": 2,
      "byteOffset": 43716,
      "componentType": 5126,
      "count": 3643,
      "max": [
        1.0,
        1.0000001192092896,
        1.0000001192092896
      ],
      "min": [
        -1.0,
        -1.0,
        -1.0000001192092896
      ],
      "type": "VEC3"
    },
    {
      "bufferView": 1,
      "componentType": 5126,
      "count": 3643,
      "max": [
        0.9970700144767761,
        -0.0027669069822877645
      ],
      "min": [
        0.004954934120178223,
        -0.9956049919128418
      ],
      "type": "VEC2"
    },
    {
      "bufferView": 0,
      "componentType": 5125,
      "count": 4128,
      "type": "SCALAR"
    },
    {
      "bufferView": 2,
      "byteOffset": 87432,
      "componentType": 5126,
      "count": 33,
      "max": [
        0.15330000221729279,
        -2.571199893951416,
        0.9339002966880798
      ],
      "min": [
        -0.15219999849796295,
        -2.571200132369995,
        0.6283003091812134
      ],
      "type": "VEC3"
    },
    {
      "bufferView": 2,
      "byteOffset": 87828,
      "componentType": 5126,
      "count": 33,
      "max": [
        2.4400295152438023e-13,
        1.0,
        3.1496242627326865e-06
      ],
      "min": [
        2.439999428633516e-13,
        1.0,
        -3.2746163469710154e-06
      ],
      "type": "VEC3"
    },
    {
      "bufferView": 1,
      "byteOffset": 29144,
      "componentType": 5126,
      "count": 33,
      "max": [
        0.22583000361919403,
        -0.7719730138778687
      ],
      "min": [
        0.025191960856318474,
        -0.9726560115814209
      ],
      "type": "VEC2"
    },
    {
      "bufferView": 0,
      "byteOffset": 16512,
      "componentType": 5125,
      "count": 48,
      "type": "SCALAR"
    },
    {
      "bufferView": 2,
      "byteOffset": 88224,
      "componentType": 5126,
      "count": 33,
      "max": [
        0.15330000221729279,
        -2.571199893951416,
        0.9339002966880798
      ],
      "min": [
        -0.15219999849796295,
        -2.571200132369995,
        0.6283003091812134
      ],
      "type": "VEC3"
    },
    {
      "bufferView": 2,
      "byteOffset": 88620,
      "componentType": 5126,
      "count": 33,
      "max": [
        2.4400295152438023e-13,
        1.0,
        3.1496242627326865e-06
      ],
      "min": [
        2.439999428633516e-13,
        1.0,
        -3.2746163469710154e-06
      ],
      "type": "VEC3"
    },
    {
      "bufferView": 1,
      "byteOffset": 29408,
      "componentType": 5126,
      "count": 33,
      "max": [
        0.22583000361919403,
        -0.7719730138778687
      ],
      "min": [
        0.025191960856318474,
        -0.9726560115814209
      ],
      "type": "VEC2"
    },
    {
      "bufferView": 0,
      "byteOffset": 16704,
      "componentType": 5125,
      "count": 48,
      "type": "SCALAR"
    },
    {
      "bufferView": 2,
      "byteOffset": 89016,
      "componentType": 5126,
      "count": 3643,
      "max": [
        0.2944999933242798,
        0.9555000066757202,
        1.611800193786621
      ],
      "min": [
        -0.2937000095844269,
        -2.764000177383423,
        -0.23620004951953888
      ],
      "type": "VEC3"
    },
    {
      "bufferView": 2,
      "byteOffset": 132732,
      "componentType": 5126,
      "count": 3643,
      "max": [
        1.0,
        1.0000001192092896,
        1.0000001192092896
      ],
      "min": [
        -1.0,
        -1.0,
        -1.0000001192092896
      ],
      "type": "VEC3"
    },
    {
      "bufferView": 1,
      "byteOffset": 29672,
      "componentType": 5126,
      "count": 3643,
      "max": [
        0.9970700144767761,
        -0.0027669069822877645
      ],
      "min": [
        0.004954934120178223,
        -0.9956049919128418
      ],
      "type": "VEC2"
    },
    {
      "bufferView": 0,
      "byteOffset": 16896,
      "componentType": 5125,
      "count": 4128,
      "type": "SCALAR"
    }
  ],
  "asset": {
    "extras": {
      "author": "MetalDoom (https://sketchfab.com/MetalDoom)",
      "license": "CC-BY-4.0 (http://creativecommons.org/licenses/by/4.0/)",
      "source": "https://sketchfab.com/3d-models/optimus-prime-ion-blaster-eeda9ad4965b4bc0a4197ab54c845d63",
      "title": "Optimus Prime Ion Blaster"
    },
    "generator": "Sketchfab-15.55.0",
    "version": "2.0"
  },
  "bufferViews": [
    {
      "buffer": 0,
      "byteLength": 33408,
      "name": "floatBufferViews",
      "target": 34963
    },
    {
      "buffer": 0,
      "byteLength": 58816,
      "byteOffset": 33408,
      "byteStride": 8,
      "name": "floatBufferViews",
      "target": 34962
    },
    {
      "buffer": 0,
      "byteLength": 176448,
      "byteOffset": 92224,
      "byteStride": 12,
      "name": "floatBufferViews",
      "target": 34962
    }
  ],
  "buffers": [
    {
      "byteLength": 268672,
      "uri": "scene.bin"
    }
  ],
  "images": [
    {
      "uri": "textures/Material_003_baseColor.png"
    },
    {
      "uri": "textures/material001_baseColor.png"
    }
  ],
  "materials": [
    {
      "doubleSided": true,
      "name": "Material_003",
      "pbrMetallicRoughness": {
        "baseColorTexture": {
          "index": 0
        },
        "metallicFactor": 0.0,
        "roughnessFactor": 0.8881966011250105
      }
    },
    {
      "doubleSided": true,
      "name": "material001",
      "pbrMetallicRoughness": {
        "baseColorTexture": {
          "index": 1
        },
        "metallicFactor": 0.0,
        "roughnessFactor": 0.9579551792373143
      }
    }
  ],
  "meshes": [
    {
      "name": "Object_0",
      "primitives": [
        {
          "attributes": {
            "NORMAL": 1,
            "POSITION": 0,
            "TEXCOORD_0": 2
          },
          "indices": 3,
          "material": 0,
          "mode": 4
        }
      ]
    },
    {
      "name": "Object_1",
      "primitives": [
        {
          "attributes": {
            "NORMAL": 5,
            "POSITION": 4,
            "TEXCOORD_0": 6
          },
          "indices": 7,
          "material": 1,
          "mode": 4
        }
      ]
    },
    {
      "name": "Object_2",
      "primitives": [
        {
          "attributes": {
            "NORMAL": 9,
            "POSITION": 8,
            "TEXCOORD_0": 10
          },
          "indices": 11,
          "material": 1,
          "mode": 4
        }
      ]
    },
    {
      "name": "Object_3",
      "primitives": [
        {
          "attributes": {
            "NORMAL": 13,
            "POSITION": 12,
            "TEXCOORD_0": 14
          },
          "indices": 15,
          "material": 0,
          "mode": 4
        }
      ]
    }
  ],
  "nodes": [
    {
      "children": [
        1
      ],
      "matrix": [
        1.0,
        0.0,
        0.0,
        0.0,
        0.0,
        2.220446049250313e-16,
        -1.0,
        0.0,
        0.0,
        1.0,
        2.220446049250313e-16,
        0.0,
        0.0,
        0.0,
        0.0,
        1.0
      ],
      "name": "Sketchfab_model"
    },
    {
      "children": [
        2
      ],
      "name": "Collada visual scene group"
    },
    {
      "children": [
        3
      ],
      "matrix": [
        1.0,
        0.0,
        0.0,
        0.0,
        0.0,
        1.0,
        2.38419e-07,
        0.0,
        0.0,
        -2.38419e-07,
        1.0,
        0.0,
        0.0,
        0.0,
        0.0,
        1.0
      ],
      "name": "Armature"
    },
    {
      "children": [
        4,
        5,
        6,
        7
      ],
      "name": "Object_3"
    },
    {
      "mesh": 0,
      "name": "Object_4"
    },
    {
      "mesh": 1,
      "name": "Object_5"
    },
    {
      "mesh": 2,
      "name": "Object_6"
    },
    {
      "mesh": 3,
      "name": "Object_7"
    }
  ],
  "samplers": [
    {
      "magFilter": 9729,
      "minFilter": 9987,
      "wrapS": 10497,
      "wrapT": 10497
    }
  ],
  "scene": 0,
  "scenes": [
    {
      "name": "Sketchfab_Scene",
      "nodes": [
        0
      ]
    }
  ],
  "textures": [
    {
      "sampler": 0,
      "source": 0
    },
    {
      "sampler": 0,
      "source": 1
    }
  ]
}
